<?xml version="1.0" encoding="UTF-8"?>
<svg version="1.1" xmlns="http://www.w3.org/2000/svg" width="212" height="211">
<path d="M0 0 C6.85415678 5.8073401 13.42836136 11.93150322 19 19 C19.83917969 20.04800781 19.83917969 20.04800781 20.6953125 21.1171875 C36.30079047 41.90116488 43.90115128 70.69454307 40.69091797 96.48291016 C37.25365355 119.28825966 28.46365281 138.80311816 13 156 C12.31550781 156.76699219 11.63101563 157.53398437 10.92578125 158.32421875 C-4.34493953 174.49819843 -23.567354 183.3595232 -45 188 C-46.16849487 188.26719849 -46.16849487 188.26719849 -47.3605957 188.53979492 C-75.55397069 193.45557624 -103.90292045 186.17835347 -127.0625 170 C-132.88631028 165.78291528 -138.34350971 161.51629866 -143 156 C-143.41411133 155.51869629 -143.82822266 155.03739258 -144.25488281 154.54150391 C-151.52787343 146.01339407 -157.2568649 137.14986112 -162 127 C-162.48210937 125.97777344 -162.96421875 124.95554688 -163.4609375 123.90234375 C-174.01631894 99.11319038 -173.47419883 70.98531093 -164 46 C-159.6575992 35.27645162 -154.52587361 25.87196482 -147 17 C-145.73349609 15.48986328 -145.73349609 15.48986328 -144.44140625 13.94921875 C-108.94626591 -27.18472717 -42.80540142 -34.39123515 0 0 Z M-129 9 C-129.72703125 9.58136719 -130.4540625 10.16273437 -131.203125 10.76171875 C-148.2824014 25.00440204 -159.64035828 47.52349022 -162.71875 69.45703125 C-165.02113544 98.46069224 -159.25828125 125.37677725 -140 148 C-123.0871453 167.09281449 -100.30337537 179.85531797 -74.69433594 182.31787109 C-46.16560744 183.96455693 -19.69162486 176.01655547 2 157 C20.11749988 139.77524649 32.52284784 115.80950128 33.203125 90.59375 C33.58377723 61.18234225 25.7682095 36.38083242 5.55639648 14.56884766 C-13.3868171 -4.52591164 -38.68682292 -14.05031895 -65.3125 -14.3125 C-89.25070018 -14.20604176 -110.60615596 -6.40652266 -129 9 Z " fill="#FFFFFF" transform="translate(171,22)"/>
<path d="M0 0 C0.83337891 -0.00386719 1.66675781 -0.00773437 2.52539062 -0.01171875 C6.95361115 -0.00471761 11.24040908 0.04276487 15.5625 1.125 C17.50595974 5.01191948 16.74730803 9.85014581 16.75 14.125 C16.76224609 15.14851563 16.77449219 16.17203125 16.78710938 17.2265625 C16.78904297 18.20367187 16.79097656 19.18078125 16.79296875 20.1875 C16.79707764 21.08597656 16.80118652 21.98445313 16.80541992 22.91015625 C16.5625 25.125 16.5625 25.125 14.5625 27.125 C12.68310547 27.35205078 12.68310547 27.35205078 10.4296875 27.3203125 C9.62402344 27.31386719 8.81835938 27.30742188 7.98828125 27.30078125 C7.14652344 27.28402344 6.30476563 27.26726562 5.4375 27.25 C4.16326172 27.23646484 4.16326172 27.23646484 2.86328125 27.22265625 C0.76290116 27.19905647 -1.33733444 27.16318483 -3.4375 27.125 C-4.4916518 30.28745541 -4.75025672 32.99448218 -5 36.3125 C-5.08378906 37.39917969 -5.16757813 38.48585937 -5.25390625 39.60546875 C-5.34478516 40.85263672 -5.34478516 40.85263672 -5.4375 42.125 C-4.83687744 42.11976318 -4.23625488 42.11452637 -3.61743164 42.10913086 C-0.91163162 42.08841986 1.79415177 42.07535875 4.5 42.0625 C5.44552734 42.05412109 6.39105469 42.04574219 7.36523438 42.03710938 C8.71391602 42.03227539 8.71391602 42.03227539 10.08984375 42.02734375 C11.33882446 42.01948853 11.33882446 42.01948853 12.61303711 42.01147461 C14.5625 42.125 14.5625 42.125 15.5625 43.125 C15.98955613 51.38141842 16.23421387 63.1174292 11.5625 70.125 C8.61185852 70.3458564 5.87881769 70.40560989 2.9375 70.3125 C1.73480469 70.29219727 1.73480469 70.29219727 0.5078125 70.27148438 C-1.47424378 70.23609051 -3.45595551 70.18228234 -5.4375 70.125 C-5.43527939 70.78676743 -5.43305878 71.44853485 -5.43077087 72.13035583 C-5.40872035 78.9916022 -5.39359438 85.85283857 -5.38256836 92.71411133 C-5.3775263 95.27791757 -5.37069286 97.84172091 -5.36206055 100.40551758 C-5.34998936 104.08155021 -5.34427058 107.75754498 -5.33984375 111.43359375 C-5.33468246 112.58774277 -5.32952118 113.74189178 -5.32420349 114.93101501 C-5.32412796 115.99203934 -5.32405243 117.05306366 -5.32397461 118.14624023 C-5.321754 119.08555893 -5.31953339 120.02487762 -5.31724548 120.99266052 C-5.4375 123.125 -5.4375 123.125 -6.4375 124.125 C-8.43714982 124.21258003 -10.4398611 124.23196576 -12.44140625 124.22265625 C-14.26381836 124.21782227 -14.26381836 124.21782227 -16.12304688 124.21289062 C-17.40244141 124.20451172 -18.68183594 124.19613281 -20 124.1875 C-21.28326172 124.18298828 -22.56652344 124.17847656 -23.88867188 124.17382812 C-27.07166022 124.16199545 -30.25455762 124.14551068 -33.4375 124.125 C-34.69024723 121.61950555 -34.55779624 119.92764368 -34.55102539 117.12451172 C-34.55094986 116.08358368 -34.55087433 115.04265564 -34.55079651 113.97018433 C-34.54563522 112.84307037 -34.54047394 111.71595642 -34.53515625 110.5546875 C-34.5337413 109.40332306 -34.53232635 108.25195862 -34.53086853 107.06570435 C-34.52525716 103.37711014 -34.5127027 99.68857595 -34.5 96 C-34.49498647 93.50390712 -34.49042331 91.0078133 -34.48632812 88.51171875 C-34.47528403 82.38279191 -34.4585348 76.25390024 -34.4375 70.125 C-36.04431641 70.14240234 -36.04431641 70.14240234 -37.68359375 70.16015625 C-39.08072743 70.16953299 -40.47786299 70.17863331 -41.875 70.1875 C-42.58205078 70.19587891 -43.28910156 70.20425781 -44.01757812 70.21289062 C-45.82443559 70.22153588 -47.63137603 70.17720011 -49.4375 70.125 C-50.4375 69.125 -50.4375 69.125 -50.55102539 66.71655273 C-50.54578857 65.67442627 -50.54055176 64.6322998 -50.53515625 63.55859375 C-50.53193359 62.43388672 -50.52871094 61.30917969 -50.52539062 60.15039062 C-50.51701172 58.96638672 -50.50863281 57.78238281 -50.5 56.5625 C-50.49548828 55.37462891 -50.49097656 54.18675781 -50.48632812 52.96289062 C-50.47449675 50.01687774 -50.45801287 47.07096319 -50.4375 44.125 C-46.97074426 42.24879699 -44.65246827 41.90559599 -40.6875 42 C-39.21023437 42.02707031 -39.21023437 42.02707031 -37.703125 42.0546875 C-36.95546875 42.07789063 -36.2078125 42.10109375 -35.4375 42.125 C-35.38142578 40.45824219 -35.38142578 40.45824219 -35.32421875 38.7578125 C-34.81518451 26.25975628 -34.07774646 15.2266852 -24.4375 6.125 C-16.45952416 0.91006727 -9.30881322 -0.04299683 0 0 Z M-20.4375 12.125 C-27.48072242 19.36386749 -27.9250384 26.93577725 -28.125 36.5625 C-28.15916016 37.67560547 -28.19332031 38.78871094 -28.22851562 39.93554688 C-28.31051702 42.66502177 -28.37569656 45.39499308 -28.4375 48.125 C-33.3875 48.455 -38.3375 48.785 -43.4375 49.125 C-44.23994265 53.13721324 -44.51361488 55.11392255 -44 58.9375 C-43.814375 60.319375 -43.62875 61.70125 -43.4375 63.125 C-38.4875 63.785 -33.5375 64.445 -28.4375 65.125 C-28.1075 82.285 -27.7775 99.445 -27.4375 117.125 C-22.4875 117.125 -17.5375 117.125 -12.4375 117.125 C-12.1075 99.965 -11.7775 82.805 -11.4375 65.125 C-5.4975 64.795 0.4425 64.465 6.5625 64.125 C8.50340826 62.18409174 7.96169435 58.65206098 8.125 56.0625 C8.269375 53.773125 8.41375 51.48375 8.5625 49.125 C1.9625 48.795 -4.6375 48.465 -11.4375 48.125 C-11.499375 45.27875 -11.56125 42.4325 -11.625 39.5 C-11.66596802 38.17234619 -11.66596802 38.17234619 -11.70776367 36.81787109 C-11.76005824 31.82120922 -11.19254204 28.46102257 -8.4375 24.125 C-5.53222388 21.21972388 -2.22650975 21.41235681 1.6875 21 C2.44160156 20.91363281 3.19570312 20.82726562 3.97265625 20.73828125 C5.83507127 20.52610739 7.69868931 20.32454237 9.5625 20.125 C9.5625 15.835 9.5625 11.545 9.5625 7.125 C-1.61285666 5.93613227 -10.96035499 5.4909985 -20.4375 12.125 Z " fill="#FFFFFF" transform="translate(123.4375,43.875)"/>
</svg>
