<?xml version="1.0" encoding="UTF-8"?>
<svg version="1.1" xmlns="http://www.w3.org/2000/svg" width="212" height="211">
<path d="M0 0 C22.2153362 19.15969516 34.61902388 45.89455979 37 75 C38.71456704 102.92765925 28.66973126 130.58860892 10.51855469 151.72509766 C-6.77029122 170.9883895 -31.50444731 184.27783731 -57.47607422 186.26611328 C-72.45482229 186.98033437 -86.61971481 186.3261445 -101 182 C-102.06476563 181.72285156 -103.12953125 181.44570312 -104.2265625 181.16015625 C-127.73507945 174.43014546 -149.11714936 154.76031805 -161.00048828 133.83886719 C-168.89124797 119.32171966 -174.60749079 102.62556874 -175 86 C-175.03867188 85.30777344 -175.07734375 84.61554688 -175.1171875 83.90234375 C-175.93390575 59.62766255 -167.80047368 33.52651855 -152 15 C-151.51966309 14.42830078 -151.03932617 13.85660156 -150.54443359 13.26757812 C-112.59625119 -31.38280852 -45.31361504 -37.64556043 0 0 Z M-141.75390625 13.9140625 C-161.33234998 36.57125387 -168.45143374 62.56034565 -167 92 C-165.1296402 112.36474532 -155.73313216 132.00378712 -142 147 C-141.22914063 147.85207031 -140.45828125 148.70414063 -139.6640625 149.58203125 C-123.33908618 166.7787296 -99.80227619 178.46617519 -75.93359375 179.3359375 C-63.04532379 179.51421621 -51.29458998 178.98073242 -39 175 C-37.86820313 174.63777344 -36.73640625 174.27554688 -35.5703125 173.90234375 C-21.9759906 169.09380063 -11.15811678 162.12508226 -1 152 C-0.16210938 151.17757812 0.67578125 150.35515625 1.5390625 149.5078125 C14.52149832 136.27809218 22.1039714 121.65852999 27 104 C27.29366455 102.96673584 27.29366455 102.96673584 27.59326172 101.91259766 C33.48621401 78.84019125 28.24744654 53.20455171 17.15234375 32.5625 C3.48388417 9.51905324 -16.10367457 -6.05020194 -41.6875 -13.75 C-42.3885083 -13.96108398 -43.0895166 -14.17216797 -43.81176758 -14.38964844 C-78.38865155 -24.30014254 -117.59825325 -12.2640464 -141.75390625 13.9140625 Z " fill="#FFFFFF" transform="translate(175,25)"/>
<path d="M0 0 C0.89576752 -0.00852997 1.79153503 -0.01705994 2.71444702 -0.02584839 C3.69476395 -0.02494202 4.67508087 -0.02403564 5.68510437 -0.02310181 C6.71953674 -0.02981903 7.75396912 -0.03653625 8.81974792 -0.04345703 C12.24846669 -0.06249586 15.67699029 -0.06636437 19.10575867 -0.06851196 C21.48606447 -0.07493634 23.86636947 -0.08166442 26.24667358 -0.08868408 C31.24098033 -0.10067197 36.23521784 -0.1043634 41.22953796 -0.10317993 C47.62884944 -0.10297679 54.0277166 -0.13026825 60.4269228 -0.16472435 C65.3451542 -0.18696511 70.26327825 -0.19101831 75.18155479 -0.18996048 C77.5406618 -0.1923211 79.89977156 -0.20117045 82.25882912 -0.21662521 C85.56009097 -0.23622511 88.86038944 -0.23046977 92.16166687 -0.21841431 C93.1359111 -0.22965332 94.11015533 -0.24089233 95.11392212 -0.25247192 C100.75329237 -0.2001526 104.24126539 0.33720223 108.61747742 4.26742554 C111.19404636 7.69124123 110.88326521 11.24078099 110.90800476 15.41928101 C110.91472198 16.13199158 110.92143921 16.84470215 110.92835999 17.57901001 C110.94733004 19.93094896 110.95126365 22.28260238 110.95341492 24.63461304 C110.95984363 26.27362179 110.96657205 27.91262939 110.97358704 29.55163574 C110.98555736 32.9863857 110.98926812 36.4210351 110.98808289 39.85580444 C110.98787973 44.24969647 111.01517917 48.64294147 111.0496273 53.03668022 C111.0719027 56.42196596 111.07592024 59.80709615 111.07486343 63.19244766 C111.07721853 64.81192377 111.086037 66.43140422 111.10152817 68.05080795 C111.12120179 70.31992192 111.11534607 72.58764294 111.10331726 74.85678101 C111.1061673 76.14599457 111.10901733 77.43520813 111.11195374 78.76348877 C110.52741943 82.90559056 109.2337064 85.03908374 106.61747742 88.26742554 C103.49196391 90.35110121 102.78803326 90.51955388 99.23495483 90.53485107 C98.33918732 90.54338104 97.4434198 90.55191101 96.52050781 90.56069946 C95.54019089 90.55979309 94.55987396 90.55888672 93.54985046 90.55795288 C92.51541809 90.5646701 91.48098572 90.57138733 90.41520691 90.57830811 C86.98648814 90.59734694 83.55796455 90.60121544 80.12919617 90.60336304 C77.74889037 90.60978741 75.36858537 90.6165155 72.98828125 90.62353516 C67.9939745 90.63552305 62.999737 90.63921448 58.00541687 90.63803101 C51.60610539 90.63782786 45.20723823 90.66511933 38.80803204 90.69957542 C33.88980064 90.72181618 28.97167658 90.72586939 24.05340004 90.72481155 C21.69429304 90.72717218 19.33518328 90.73602153 16.97612572 90.75147629 C13.67486387 90.77107618 10.3745654 90.76532084 7.07328796 90.75326538 C6.09904373 90.76450439 5.1247995 90.77574341 4.12103271 90.787323 C-1.49646486 90.7352066 -5.06967059 90.24981007 -9.38252258 86.26742554 C-11.70423794 82.3290316 -11.64594847 78.60021913 -11.67304993 74.09384155 C-11.67976715 73.39073853 -11.68648437 72.6876355 -11.69340515 71.96322632 C-11.71233453 69.64918874 -11.71630649 67.33544187 -11.71846008 65.02133179 C-11.72489068 63.40617251 -11.73161923 61.7910144 -11.7386322 60.17585754 C-11.75059166 56.79416198 -11.75431431 53.41256848 -11.75312805 50.03085327 C-11.75292474 45.70536739 -11.78024508 41.38053762 -11.81467247 37.05520725 C-11.83694685 33.72053542 -11.84096546 30.38602149 -11.8399086 27.05128288 C-11.84226305 25.4569262 -11.85107784 23.86256506 -11.86657333 22.26828194 C-11.88624888 20.03519245 -11.88039106 17.80351806 -11.86836243 15.57040405 C-11.87121246 14.30197159 -11.8740625 13.03353912 -11.8769989 11.72666931 C-11.28903074 7.61337788 -9.97740567 5.47752187 -7.38252258 2.26742554 C-4.25700908 0.18374987 -3.55307843 0.01529719 0 0 Z M-3.07002258 7.51742554 C-4.51683007 9.44650218 -4.86786633 10.93944771 -5.38252258 13.26742554 C1.13231516 18.69218216 7.73699948 23.91596625 14.54325867 28.97055054 C17.6154662 31.26592287 20.64975176 33.60448434 23.67997742 35.95492554 C32.20454114 42.5540286 40.92126522 48.89747426 49.61747742 55.26742554 C50.13479431 54.8778064 50.65211121 54.48818726 51.18510437 54.08676147 C55.03315807 51.19370246 58.8952723 48.32694336 62.80497742 45.51742554 C67.30746938 42.25127358 71.73020936 38.89562472 76.12553406 35.48690796 C79.65430307 32.75780729 83.21048906 30.06862086 86.78544617 27.40023804 C87.68593689 26.72807251 88.58642761 26.05590698 89.51420593 25.3633728 C91.30873551 24.02586615 93.10475708 22.69035858 94.90238953 21.35702515 C95.72875916 20.74093384 96.55512878 20.12484253 97.40653992 19.49008179 C98.51569763 18.6664917 98.51569763 18.6664917 99.64726257 17.82626343 C101.44435688 16.40439885 103.03879541 14.92494816 104.61747742 13.26742554 C103.54346634 10.35225262 102.83937566 8.48932378 100.61747742 6.26742554 C96.93420646 6.58834792 94.7010348 7.63144836 91.85966492 9.93539429 C91.16091248 10.49226929 90.46216003 11.04914429 89.74223328 11.62289429 C88.62860413 12.52974976 88.62860413 12.52974976 87.49247742 13.45492554 C85.88866592 14.73174956 84.28313941 16.00642178 82.67607117 17.27914429 C81.43252869 18.2660022 81.43252869 18.2660022 80.16386414 19.27279663 C76.02037963 22.51845995 71.79448956 25.64879616 67.55497742 28.76742554 C66.79491394 29.32969849 66.03485046 29.89197144 65.25175476 30.47128296 C60.14045239 34.22676513 54.92265072 37.79170332 49.61747742 41.26742554 C43.53002154 37.32675362 37.73864725 33.14268638 32.05497742 28.64242554 C24.16889947 22.45143162 16.21000757 16.36662243 8.14189148 10.41439819 C6.87253319 9.45933009 5.64179515 8.45319959 4.42216492 7.43539429 C1.73485966 5.69620755 -0.46595309 5.58848517 -3.07002258 7.51742554 Z M13.61747742 6.26742554 C16.81148998 9.4614381 19.36393561 11.9785328 22.91044617 14.53695679 C23.70112488 15.11244263 24.49180359 15.68792847 25.30644226 16.28085327 C26.13095886 16.87454712 26.95547546 17.46824097 27.80497742 18.07992554 C33.96404937 22.53855042 39.9499796 27.02190628 45.60966492 32.10726929 C47.56305368 33.45534767 47.56305368 33.45534767 49.91825867 33.29086304 C53.78328779 31.82539613 56.69615718 29.4940029 59.92997742 26.95492554 C61.34372412 25.86727535 62.75779683 24.7800488 64.17216492 23.69320679 C65.26222839 22.84943481 65.26222839 22.84943481 66.37431335 21.98861694 C68.6283235 20.25910328 70.9029044 18.56136108 73.18778992 16.87289429 C73.91957458 16.33124634 74.65135925 15.78959839 75.40531921 15.23153687 C76.81927949 14.18628219 78.23476714 13.14308995 79.65190125 12.10214233 C83.15615223 9.65625207 83.15615223 9.65625207 85.61747742 6.26742554 C61.85747742 6.26742554 38.09747742 6.26742554 13.61747742 6.26742554 Z M-4.38252258 23.26742554 C-5.4377941 29.35475424 -5.57611766 35.32364135 -5.62080383 41.49398804 C-5.62887558 42.55983124 -5.63694733 43.62567444 -5.64526367 44.72381592 C-5.65904152 46.96782838 -5.66979159 49.21186124 -5.6776886 51.4559021 C-5.68926296 53.7505609 -5.70979954 56.04519167 -5.73921204 58.33969116 C-5.78176489 61.66214209 -5.79803493 64.98379894 -5.80830383 68.30648804 C-5.82581192 69.33053741 -5.84332001 70.35458679 -5.86135864 71.40966797 C-5.84813701 75.73939931 -5.74730119 78.56396631 -3.73091125 82.45248413 C-0.76739149 84.74282678 0.95955654 84.68309836 4.61747742 84.26742554 C4.7951289 76.54479403 4.91762083 68.82269019 5.0019989 61.09848022 C5.03717674 58.47165232 5.0849276 55.84496122 5.14555359 53.21859741 C5.23058049 49.44025927 5.27019512 45.66373408 5.30107117 41.88461304 C5.33720016 40.71252289 5.37332916 39.54043274 5.41055298 38.33282471 C5.52550668 32.38191326 5.52550668 32.38191326 3.08283997 27.15322876 C-0.20447949 24.15086729 -0.20447949 24.15086729 -4.38252258 23.26742554 Z M96.64805603 26.97091675 C92.90535405 31.2037733 93.48915647 35.81940436 93.70341492 41.22055054 C93.71377777 42.35772522 93.72414063 43.4948999 93.7348175 44.66653442 C93.7784174 48.28560539 93.88514062 51.89974226 93.99247742 55.51742554 C94.0290658 57.9652852 94.06166132 60.41320802 94.09013367 62.86117554 C94.15670543 67.32974249 94.23401678 71.79720573 94.36112976 76.26449585 C94.38605499 77.160495 94.41098022 78.05649414 94.43666077 78.97964478 C94.53805081 81.4299754 94.53805081 81.4299754 95.61747742 84.26742554 C99.90288294 83.95750726 99.90288294 83.95750726 103.29541016 81.57595825 C104.93894552 78.7060928 104.97994055 76.87853763 104.95805359 73.5809021 C104.9577137 71.86958099 104.9577137 71.86958099 104.95736694 70.12368774 C104.94188309 68.89752747 104.92639923 67.67136719 104.91044617 66.40805054 C104.9040789 64.51877838 104.9040789 64.51877838 104.89758301 62.59133911 C104.88363863 59.25054016 104.85670667 55.9103597 104.82347107 52.56973267 C104.7927258 49.15781996 104.7790682 45.74584324 104.76396179 42.33383179 C104.73087556 35.64485905 104.68066266 28.95617799 104.61747742 22.26742554 C101.72969069 22.26742554 98.77914908 25.28392679 96.64805603 26.97091675 Z M10.61747742 35.26742554 C10.59220851 42.08504448 10.57464497 48.90265143 10.56254578 55.7203064 C10.55750408 58.04160005 10.5506709 60.36289051 10.54203796 62.68417358 C10.52996517 66.01271348 10.52424763 69.34121156 10.51982117 72.66976929 C10.51465988 73.71454941 10.5094986 74.75932953 10.50418091 75.83576965 C10.50410538 76.79669022 10.50402985 77.75761078 10.50395203 78.74765015 C10.50173141 79.59814438 10.4995108 80.44863861 10.4972229 81.3249054 C10.40267458 83.27331099 10.40267458 83.27331099 11.61747742 84.26742554 C13.98509317 84.36768249 16.32354815 84.40361489 18.69169617 84.39682007 C19.43150726 84.39857239 20.17131836 84.40032471 20.93354797 84.40213013 C23.39071465 84.40654863 25.84780995 84.40361067 28.30497742 84.40023804 C30.00509149 84.40091108 31.70520547 84.4018811 33.40531921 84.40313721 C36.97311822 84.40461418 40.54089224 84.40245965 44.10868835 84.39779663 C48.69236235 84.39209934 53.27597781 84.39537835 57.85964966 84.40136909 C61.37167302 84.40497473 64.8836824 84.40383611 68.39570618 84.4012413 C70.08627835 84.40057204 71.77685177 84.40140043 73.46742249 84.40372086 C75.82606899 84.40624743 78.18461936 84.40240675 80.54325867 84.39682007 C81.24874847 84.3988443 81.95423828 84.40086853 82.68110657 84.4029541 C85.92939784 84.66558119 85.92939784 84.66558119 88.61747742 83.26742554 C88.71059631 81.76323814 88.73493769 80.25471198 88.73100281 78.74765015 C88.73092728 77.78672958 88.73085175 76.82580902 88.73077393 75.83576965 C88.72561264 74.79098953 88.72045135 73.74620941 88.71513367 72.66976929 C88.71371872 71.60577408 88.71230377 70.54177887 88.71084595 69.44554138 C88.70522805 66.0319747 88.69267253 62.61847254 88.67997742 59.20492554 C88.67496472 56.89698377 88.67040142 54.58904099 88.66630554 52.28109741 C88.65525281 46.60985127 88.63849728 40.93864301 88.61747742 35.26742554 C85.33387929 36.47414255 82.68659127 37.75935393 79.93778992 39.91976929 C79.26336853 40.44425659 78.58894714 40.9687439 77.89408875 41.50912476 C77.18405701 42.06873901 76.47402527 42.62835327 75.74247742 43.20492554 C74.22866021 44.37354966 72.71432669 45.54150525 71.19950867 46.70883179 C68.94606072 48.45452757 66.6969186 50.20476745 64.45878601 51.97006226 C62.46072169 53.54308636 60.44724542 55.09415321 58.42997742 56.64242554 C57.83136902 57.12445435 57.23276062 57.60648315 56.61601257 58.1031189 C53.78821848 60.25011817 52.07730734 61.26455877 48.48466492 61.28695679 C45.27248787 60.14475214 43.46795919 58.84942659 40.92997742 56.57992554 C35.69238517 52.10088114 30.28191868 47.93003012 24.74247742 43.82992554 C23.92174744 43.21480103 23.10101746 42.59967651 22.25541687 41.96591187 C21.07725403 41.09615723 21.07725403 41.09615723 19.87528992 40.20883179 C18.82559021 39.43068115 18.82559021 39.43068115 17.75468445 38.6368103 C15.45750432 37.16492507 13.17518422 36.201897 10.61747742 35.26742554 Z " fill="#FFFFFF" transform="translate(56.38252258300781,60.732574462890625)"/>
</svg>
