<?xml version="1.0" encoding="UTF-8"?>
<svg version="1.1" xmlns="http://www.w3.org/2000/svg" width="212" height="211">
<path d="M0 0 C21.8939479 18.57399001 34.08283281 44.57275236 36.83666992 72.95629883 C39.19334201 102.44464276 28.7034859 129.53108504 10 152 C-1.93639243 165.74267959 -19.10414301 177.72988544 -37 182 C-41.05572878 181.93125883 -43.13538014 181.7772855 -46.17773438 179.04223633 C-48.73107234 174.77948922 -48.53082735 171.26572808 -48.46875 166.38671875 C-48.47579956 165.45833694 -48.48284912 164.52995514 -48.4901123 163.57344055 C-48.51952469 159.6156264 -48.50301518 155.65830791 -48.49072266 151.70043945 C-48.4883306 148.80390448 -48.50932402 145.9081558 -48.53125 143.01171875 C-48.51993042 142.1281218 -48.50861084 141.24452484 -48.49694824 140.33415222 C-48.55199072 133.50908825 -50.07377135 127.92622865 -55 123 C-54.625 120.375 -54.625 120.375 -54 118 C-52.865625 117.82984375 -51.73125 117.6596875 -50.5625 117.484375 C-37.16166881 115.37526015 -27.60095883 112.29250169 -18.6484375 101.34765625 C-12.8643873 92.31835651 -11.91343126 80.38807474 -13 70 C-14.29598161 64.74961295 -16.13841455 60.29711216 -19.1328125 55.7890625 C-21.68838497 51.39130847 -21.37917328 47.26887892 -21.125 42.3125 C-21.05588757 40.64228299 -20.99566439 38.97166906 -20.9453125 37.30078125 C-20.90937988 36.57028564 -20.87344727 35.83979004 -20.83642578 35.0871582 C-21.02672713 32.65896976 -21.79384466 31.09525906 -23 29 C-28.61277759 30.36139712 -33.20568771 31.97769161 -38 35.25 C-43.33012384 38.63885425 -47.00800593 38.25413829 -53 37 C-63.80446219 35.22044152 -74.63719984 35.35208707 -85.3515625 37.5625 C-90.94412284 38.48634478 -94.28778262 38.28796651 -99.0625 35.125 C-104.70140797 31.43699384 -109.26216375 29.79268662 -116 29 C-115.97381592 29.69037354 -115.94763184 30.38074707 -115.9206543 31.09204102 C-115.81611412 34.24862513 -115.75149418 37.40484417 -115.6875 40.5625 C-115.64560547 41.64853516 -115.60371094 42.73457031 -115.56054688 43.85351562 C-115.4502181 51.11314877 -116.25989136 54.50318727 -121 60 C-125.81707929 70.01229109 -125.20837327 82.17284889 -121.8984375 92.54296875 C-121.45371094 93.75919922 -121.45371094 93.75919922 -121 95 C-120.74476562 95.71800781 -120.48953125 96.43601562 -120.2265625 97.17578125 C-116.80705773 105.25396912 -110.0304384 110.36983356 -102.1875 113.875 C-96.985446 115.88503627 -91.93826245 116.81693811 -86.3984375 117.34765625 C-84 118 -84 118 -82.51953125 119.80859375 C-82 122 -82 122 -82.86328125 124 C-83.58064453 124.99 -83.58064453 124.99 -84.3125 126 C-87.21414823 130.07025724 -88.11781446 133.24254092 -88.1418457 138.23022461 C-88.14888016 139.05465561 -88.15591461 139.87908661 -88.16316223 140.72850037 C-88.16940865 142.05205284 -88.16940865 142.05205284 -88.17578125 143.40234375 C-88.19897304 145.28061024 -88.22309012 147.1588655 -88.24804688 149.03710938 C-88.28319035 151.99088141 -88.31253056 154.94423741 -88.32592773 157.89819336 C-88.34140708 160.75425103 -88.38160568 163.60910458 -88.42578125 166.46484375 C-88.42387283 167.34518784 -88.42196442 168.22553192 -88.41999817 169.1325531 C-88.50152713 173.2240125 -88.67706825 175.46777729 -90.84057617 179.03344727 C-93.93833825 181.85452964 -95.81834215 182 -100 182 C-121.1735847 178.89560224 -141.07452542 161.19899495 -153.42358398 144.91235352 C-165.92643484 128.06826865 -174.14860923 108.13670124 -175 87 C-175.03996094 86.25363281 -175.07992187 85.50726563 -175.12109375 84.73828125 C-175.91197883 56.59207689 -165.25849392 28.9870758 -146.375 8.3125 C-107.58726596 -32.51036063 -43.29785871 -35.5524215 0 0 Z M-140.01953125 12.02734375 C-141.7700716 13.95965578 -143.3930274 15.94707328 -145 18 C-145.62132812 18.75023437 -146.24265625 19.50046875 -146.8828125 20.2734375 C-156.91789742 33.06325161 -162.95418648 48.13638792 -166 64 C-166.18949219 64.928125 -166.37898437 65.85625 -166.57421875 66.8125 C-169.10966784 85.79347668 -166.68972592 105.84222483 -158 123 C-157.68933594 123.6197168 -157.37867188 124.23943359 -157.05859375 124.87792969 C-152.15270226 134.52649384 -146.7338386 142.35579198 -139 150 C-138.17757812 150.8353125 -137.35515625 151.670625 -136.5078125 152.53125 C-125.36065373 163.50477701 -112.48575444 171.9092881 -97 175 C-95.72694444 173.95128747 -95.72694444 173.95128747 -95.88647461 171.59155273 C-95.89171143 170.54942627 -95.89694824 169.5072998 -95.90234375 168.43359375 C-95.90556641 167.30888672 -95.90878906 166.18417969 -95.91210938 165.02539062 C-95.92467773 163.24938477 -95.92467773 163.24938477 -95.9375 161.4375 C-95.94201172 160.24962891 -95.94652344 159.06175781 -95.95117188 157.83789062 C-95.96300325 154.89187774 -95.97948713 151.94596319 -96 149 C-96.89460938 149.04640625 -97.78921875 149.0928125 -98.7109375 149.140625 C-106.46609556 149.37212226 -113.3691847 149.42054353 -120 145 C-124.70424842 140.38799174 -127.70611953 134.85257438 -130.73828125 129.0703125 C-132.04272429 126.92989512 -133.4334694 125.40479022 -135.25 123.6875 C-137.93651799 121.06203924 -138.38354348 120.44188222 -139 117 C-132.7159152 116.5511368 -128.09705385 117.07765778 -123 121 C-121.61720524 122.62586415 -120.28624522 124.29672997 -119 126 C-115.58368181 130.49970314 -112.65652666 133.74982563 -107 135 C-102.84576096 135.06109175 -98.75623966 134.87811983 -95 133 C-94.09274566 130.88672575 -94.09274566 130.88672575 -93.375 128.4375 C-92.98441406 127.19806641 -92.98441406 127.19806641 -92.5859375 125.93359375 C-92.29589844 124.97646484 -92.29589844 124.97646484 -92 124 C-92.95519531 123.72027344 -93.91039063 123.44054687 -94.89453125 123.15234375 C-108.49214837 119.00810634 -118.99412928 113.57637611 -126.2421875 100.8125 C-132.19628306 88.64354556 -132.45873133 74.62247844 -129 61.71875 C-128.04212468 59.11452647 -126.99264137 57.42654678 -125.3125 55.25 C-122.23793914 50.86168019 -122.75648019 46.34632245 -122.95629883 41.23144531 C-123.17247445 34.5119208 -121.85687517 28.4548518 -120 22 C-114.78211354 21.76040317 -110.88926528 22.4383526 -106 24.25 C-104.77796875 24.70117188 -103.5559375 25.15234375 -102.296875 25.6171875 C-99.68478536 26.7127796 -97.56889464 27.79594317 -95.25 29.375 C-90.54553521 31.72723239 -87.07942139 30.74560314 -82 30 C-72.22472603 28.99202331 -63.33365768 29.03440611 -53.62109375 30.625 C-47.22177702 31.28771241 -42.65536519 30.13294546 -37.0625 27.0625 C-30.81189188 23.80437052 -25.19499558 21.55031278 -18 22 C-15.05770983 29.41968826 -13.8845192 35.31780956 -14.25 43.375 C-14.37935635 49.02287598 -13.73152984 52.53817632 -10.3125 57.07421875 C-4.37712092 65.78297437 -4.99080165 78.37371313 -6.50390625 88.30859375 C-7.96265564 94.85212674 -10.26880621 100.43556071 -14 106 C-14.38414062 106.60328125 -14.76828125 107.2065625 -15.1640625 107.828125 C-21.92809241 117.04048475 -34.22362022 121.72555084 -45 124 C-44.68344955 124.80818932 -44.68344955 124.80818932 -44.36050415 125.63270569 C-42.24977858 131.40011735 -41.54762472 136.44480541 -41.5234375 142.55859375 C-41.50785797 143.42895767 -41.49227844 144.29932159 -41.47622681 145.19606018 C-41.42915478 147.94319915 -41.40107156 150.69008867 -41.375 153.4375 C-41.33846951 156.2097319 -41.29791209 158.98182339 -41.25234985 161.75392151 C-41.22517884 163.47107145 -41.20380346 165.18832493 -41.18881226 166.90562439 C-41.24426357 171.08653687 -41.24426357 171.08653687 -40 175 C-17.76773694 169.97812411 1.6005563 153.74834275 13.8125 135 C27.76306608 112.76357053 33.0551785 85.78187395 27.92333984 59.84765625 C21.76455134 34.04883163 5.86373965 11.35984391 -16.54785156 -2.82543945 C-55.93640169 -26.78380581 -107.58936888 -20.52827379 -140.01953125 12.02734375 Z M-124 128 C-123 130 -123 130 -123 130 Z M-122 131 C-121.51175107 135.23149075 -119.10209745 138.25198811 -116 141 C-110.67984613 144.11791153 -105.05536625 144.6210632 -99 144 C-98.01 143.67 -97.02 143.34 -96 143 C-96 142.01 -96 141.02 -96 140 C-97.051875 140.05220703 -97.051875 140.05220703 -98.125 140.10546875 C-106.03873191 140.33126817 -111.89036455 139.83923237 -117.875 134.375 C-118.57625 133.59125 -119.2775 132.8075 -120 132 C-120.66 131.67 -121.32 131.34 -122 131 Z " fill="#FFFFFF" transform="translate(175,25)"/>
</svg>
