<?xml version="1.0" encoding="UTF-8"?>
<svg version="1.1" xmlns="http://www.w3.org/2000/svg" width="212" height="211">
<path d="M0 0 C27.50794308 -1.05247782 53.18720283 10.86081251 73.48828125 28.6171875 C95.31533769 49.26941654 106.05332109 77.32122867 106.99609375 107.0390625 C106.38087574 135.41599299 94.76893295 162.91004124 74.56323242 182.82543945 C50.69333371 205.22295417 22.37585413 212.35200203 -9.625 211.39501953 C-32.51882569 209.96264128 -54.43346029 199.37180142 -71.31640625 184.1640625 C-72.09628906 183.46667969 -72.87617187 182.76929688 -73.6796875 182.05078125 C-79.92347939 176.1520694 -84.79768234 169.42759766 -89.31640625 162.1640625 C-89.6712207 161.59445801 -90.02603516 161.02485352 -90.39160156 160.43798828 C-99.51745031 145.43468846 -104.09509086 128.61142519 -105.31640625 111.1640625 C-105.38730469 110.25140625 -105.45820312 109.33875 -105.53125 108.3984375 C-106.58090785 81.02336064 -95.38868379 54.2375292 -77.31640625 34.1640625 C-76.57003906 33.32359375 -75.82367188 32.483125 -75.0546875 31.6171875 C-55.28295048 10.57090875 -28.05300103 1.98689046 0 0 Z M-71.96679688 38.91162109 C-83.86880357 52.14127001 -90.7979573 67.07810574 -95.31640625 84.1640625 C-95.56261719 85.05867188 -95.80882813 85.95328125 -96.0625 86.875 C-101.56125709 110.91784135 -95.354701 137.1918364 -83.31640625 158.1640625 C-80.51529476 162.34053989 -77.49391693 166.26869039 -74.31640625 170.1640625 C-73.71441406 170.94265625 -73.11242187 171.72125 -72.4921875 172.5234375 C-58.95464387 189.08563838 -37.8580542 198.81771885 -17.31640625 203.1640625 C-16.54248535 203.33768311 -15.76856445 203.51130371 -14.97119141 203.69018555 C9.10769673 207.98824715 36.32805366 201.91245013 56.36035156 187.99951172 C78.72899446 171.84987031 93.10161311 149.61319199 98.21630859 122.3215332 C100.47144609 107.08344898 99.60980226 90.77398226 94.68359375 76.1640625 C94.46928711 75.51937012 94.25498047 74.87467773 94.03417969 74.21044922 C85.48043735 49.2651468 67.51902692 28.58782613 43.83203125 16.953125 C4.5892878 -0.86342798 -42.34329814 7.54401696 -71.96679688 38.91162109 Z " fill="#FFFFFF" transform="translate(105.31640625,-0.1640625)"/>
<path d="M0 0 C6.53790515 4.990401 8.66921733 11.19293788 10.34692383 19.0456543 C10.9943464 23.89543182 10.99901837 28.69013016 11.01953125 33.578125 C11.02523132 34.63030212 11.0309314 35.68247925 11.0368042 36.76654053 C11.04622173 38.98204552 11.05277522 41.19756431 11.05664062 43.41308594 C11.06641256 46.81469572 11.09749296 50.21571764 11.12890625 53.6171875 C11.13543038 55.77082975 11.14068316 57.92447631 11.14453125 60.078125 C11.15687805 61.09892151 11.16922485 62.11971802 11.1819458 63.17144775 C11.1789447 64.11292664 11.1759436 65.05440552 11.17285156 66.02441406 C11.17832001 67.26967865 11.17832001 67.26967865 11.18389893 68.5401001 C11.06262634 69.20749207 10.94135376 69.87488403 10.81640625 70.5625 C7.49028886 72.7799116 6.43569082 72.80998716 2.5625 72.79296875 C1.54349609 72.79103516 0.52449219 72.78910156 -0.52539062 72.78710938 C-1.58822266 72.77486328 -2.65105469 72.76261719 -3.74609375 72.75 C-4.81279297 72.74935547 -5.87949219 72.74871094 -6.97851562 72.74804688 C-14.90283422 72.70287976 -14.90283422 72.70287976 -17.18359375 71.5625 C-17.21332275 69.70117432 -17.21332275 69.70117432 -17.24365234 67.80224609 C-17.31991456 63.18388099 -17.40860005 58.56582248 -17.50097656 53.94775391 C-17.53918123 51.95172188 -17.57404877 49.95562301 -17.60546875 47.95947266 C-17.65130439 45.08471846 -17.70926816 42.21042108 -17.76953125 39.3359375 C-17.78108246 38.44820648 -17.79263367 37.56047546 -17.80453491 36.64584351 C-17.97142719 28.39124878 -17.97142719 28.39124878 -22.18359375 21.5625 C-27.77077202 20.9341013 -27.77077202 20.9341013 -32.62109375 23.25 C-35.93233507 28.15063716 -35.34508655 34.02253857 -35.39453125 39.73046875 C-35.42257302 41.52800432 -35.45123725 43.32553026 -35.48046875 45.12304688 C-35.52189256 47.94750976 -35.55879557 50.77178753 -35.58496094 53.59643555 C-35.61244518 56.32898528 -35.65828033 59.06072708 -35.70703125 61.79296875 C-35.71028412 62.64191208 -35.71353699 63.49085541 -35.71688843 64.36552429 C-35.76708984 66.74291992 -35.76708984 66.74291992 -36.18359375 70.5625 C-39.44215419 72.73487362 -40.41001719 72.81852651 -44.18359375 72.828125 C-45.63765625 72.83199219 -45.63765625 72.83199219 -47.12109375 72.8359375 C-48.13171875 72.82820313 -49.14234375 72.82046875 -50.18359375 72.8125 C-51.19421875 72.82023437 -52.20484375 72.82796875 -53.24609375 72.8359375 C-54.21546875 72.83335937 -55.18484375 72.83078125 -56.18359375 72.828125 C-57.07046875 72.82586914 -57.95734375 72.82361328 -58.87109375 72.82128906 C-61.18359375 72.5625 -61.18359375 72.5625 -64.18359375 70.5625 C-64.5443573 67.51266479 -64.5443573 67.51266479 -64.52416992 63.54248047 C-64.524608 62.82042419 -64.52504608 62.09836792 -64.52549744 61.35443115 C-64.52340374 58.96257692 -64.50004632 56.5714196 -64.4765625 54.1796875 C-64.47096859 52.52345157 -64.46669752 50.86721068 -64.46369934 49.21096802 C-64.45223438 44.8477004 -64.42275323 40.48473148 -64.3895874 36.12158203 C-64.35892193 31.67093955 -64.34520156 27.22024889 -64.33007812 22.76953125 C-64.29788485 14.03370169 -64.24510368 5.29817239 -64.18359375 -3.4375 C-55.60359375 -3.4375 -47.02359375 -3.4375 -38.18359375 -3.4375 C-37.85359375 -2.4475 -37.52359375 -1.4575 -37.18359375 -0.4375 C-36.6525 -0.71464844 -36.12140625 -0.99179688 -35.57421875 -1.27734375 C-34.8678125 -1.63957031 -34.16140625 -2.00179687 -33.43359375 -2.375 C-32.7375 -2.73464844 -32.04140625 -3.09429687 -31.32421875 -3.46484375 C-20.85499803 -8.22184368 -9.2499465 -6.08941022 0 0 Z M-36.18359375 7.5625 C-36.71984375 8.305 -37.25609375 9.0475 -37.80859375 9.8125 C-38.26234375 10.39 -38.71609375 10.9675 -39.18359375 11.5625 C-40.17359375 11.5625 -41.16359375 11.5625 -42.18359375 11.5625 C-42.51359375 8.5925 -42.84359375 5.6225 -43.18359375 2.5625 C-47.80359375 2.5625 -52.42359375 2.5625 -57.18359375 2.5625 C-57.18359375 23.3525 -57.18359375 44.1425 -57.18359375 65.5625 C-52.23359375 65.5625 -47.28359375 65.5625 -42.18359375 65.5625 C-42.16901123 64.38220215 -42.15442871 63.2019043 -42.1394043 61.98583984 C-42.08126678 57.59100625 -42.00403494 53.19667674 -41.92114258 48.80224609 C-41.88796582 46.90324101 -41.85991144 45.00413904 -41.8371582 43.10498047 C-41.80347857 40.36904765 -41.75115655 37.63399689 -41.6953125 34.8984375 C-41.68892258 34.05445404 -41.68253265 33.21047058 -41.6759491 32.34091187 C-41.55279042 27.36099013 -40.92790484 23.87916266 -38.18359375 19.5625 C-33.85081926 15.65243522 -31.25254722 14.2443248 -25.34375 14.3515625 C-20.32061222 14.84206782 -17.07714171 16.52786552 -13.80859375 20.3125 C-10.89473341 26.14022069 -11.01382645 32.50196663 -10.8671875 38.90234375 C-10.8464064 39.66930069 -10.82562531 40.43625763 -10.80421448 41.22645569 C-10.73938543 43.65088872 -10.68014754 46.07542013 -10.62109375 48.5 C-10.57784496 50.15430662 -10.53422876 51.80860367 -10.49023438 53.46289062 C-10.38377351 57.49599566 -10.28232313 61.52919859 -10.18359375 65.5625 C-5.56359375 65.5625 -0.94359375 65.5625 3.81640625 65.5625 C3.9158697 59.19454414 3.98815517 52.82704838 4.03613281 46.45849609 C4.05615015 44.29565546 4.08337255 42.13286827 4.11816406 39.97021484 C4.16711872 36.84719594 4.18947442 33.7248974 4.20703125 30.6015625 C4.22767639 29.64698151 4.24832153 28.69240051 4.26959229 27.70889282 C4.2722138 19.72435863 2.54615478 12.85219695 -2.62109375 6.625 C-3.88953125 5.6040625 -3.88953125 5.6040625 -5.18359375 4.5625 C-5.88484375 3.985 -6.58609375 3.4075 -7.30859375 2.8125 C-16.90420644 -1.35950552 -28.66435408 0.04326033 -36.18359375 7.5625 Z " fill="#FFFFFF" transform="translate(152.18359375,89.4375)"/>
<path d="M0 0 C1.6097168 0.00966797 1.6097168 0.00966797 3.25195312 0.01953125 C4.9312793 0.04466797 4.9312793 0.04466797 6.64453125 0.0703125 C7.77568359 0.07933594 8.90683594 0.08835937 10.07226562 0.09765625 C12.86739953 0.12124388 15.6621097 0.1541595 18.45703125 0.1953125 C19.93383179 3.14891359 19.59252633 5.79520058 19.60229492 9.09179688 C19.60565353 9.80088699 19.60901215 10.50997711 19.61247253 11.24055481 C19.62199022 13.59007507 19.62392592 15.93952415 19.625 18.2890625 C19.62821156 19.91809112 19.63157555 21.54711945 19.63508606 23.17614746 C19.64107905 26.5925361 19.64292574 30.00889944 19.64233398 33.42529297 C19.64223225 37.81046853 19.65589555 42.19548258 19.67310619 46.58061981 C19.68420413 49.94513703 19.68625389 53.3096149 19.68572426 56.67414856 C19.68690729 58.29133156 19.69134703 59.90851549 19.69905663 61.52568054 C19.70881404 63.78351287 19.70599576 66.04099054 19.69995117 68.29882812 C19.70137619 69.58519165 19.70280121 70.87155518 19.70426941 72.19689941 C19.45703125 75.1953125 19.45703125 75.1953125 17.45703125 77.1953125 C15.05859375 77.45410156 15.05859375 77.45410156 12.08203125 77.4609375 C11.0146875 77.46351563 9.94734375 77.46609375 8.84765625 77.46875 C7.16929688 77.45714844 7.16929688 77.45714844 5.45703125 77.4453125 C4.338125 77.45304687 3.21921875 77.46078125 2.06640625 77.46875 C0.9990625 77.46617187 -0.06828125 77.46359375 -1.16796875 77.4609375 C-2.15023437 77.45868164 -3.1325 77.45642578 -4.14453125 77.45410156 C-6.54296875 77.1953125 -6.54296875 77.1953125 -8.54296875 75.1953125 C-8.80366516 72.19689941 -8.80366516 72.19689941 -8.81762695 68.29882812 C-8.82273788 67.58973801 -8.82784882 66.88064789 -8.83311462 66.15007019 C-8.84704257 63.80048236 -8.84605168 61.45118676 -8.84375 59.1015625 C-8.84763485 57.47253306 -8.85196907 55.84350464 -8.85673523 54.21447754 C-8.86420408 50.79806231 -8.86390114 47.38175042 -8.85864258 43.96533203 C-8.85284343 39.58005925 -8.86978619 35.1952082 -8.89298725 30.81000519 C-8.90769405 27.44547031 -8.90860055 24.08103776 -8.90547752 20.71647644 C-8.90599216 19.09929061 -8.91125647 17.48209925 -8.92128944 15.86494446 C-8.93357954 13.6069468 -8.92690816 11.34978048 -8.9152832 9.09179688 C-8.91591263 7.80543335 -8.91654205 6.51906982 -8.91719055 5.19372559 C-8.79369736 4.20424927 -8.67020416 3.21477295 -8.54296875 2.1953125 C-5.14399202 -0.07067198 -3.97977702 -0.04211404 0 0 Z M-1.54296875 7.1953125 C-1.54296875 27.9853125 -1.54296875 48.7753125 -1.54296875 70.1953125 C3.40703125 70.1953125 8.35703125 70.1953125 13.45703125 70.1953125 C13.47958574 62.1287866 13.49794834 54.06228504 13.50884342 45.99573612 C13.51407139 42.25048213 13.52116747 38.50525074 13.5324707 34.76000977 C13.54330266 31.14849563 13.54930874 27.53700329 13.55190849 23.92547417 C13.55376219 22.54470921 13.55738174 21.1639455 13.56276131 19.78318977 C13.56997572 17.85555298 13.57043934 15.92789443 13.57055664 14.00024414 C13.57277725 12.90104141 13.57499786 11.80183868 13.57728577 10.66932678 C13.73749758 8.2517978 13.73749758 8.2517978 12.45703125 7.1953125 C7.83703125 7.1953125 3.21703125 7.1953125 -1.54296875 7.1953125 Z " fill="#FFFFFF" transform="translate(59.54296875,84.8046875)"/>
<path d="M0 0 C4.10270391 2.31786618 6.37522034 4.9093195 7.75 9.4375 C8.51365416 14.45693518 8.34114596 18.20973531 6.125 22.8125 C2.89516285 26.38232001 0.29995471 29.02444949 -4.61328125 29.8203125 C-10.68297652 30.0966264 -14.41340008 29.11331594 -19.25 25.4375 C-22.70139602 21.80910932 -23.55855617 18.87839472 -23.8125 14 C-23.59803965 8.5645394 -22.24904854 5.14110432 -18.25 1.4375 C-12.38058343 -2.60587586 -6.3924345 -2.75658885 0 0 Z M-16.25 9.4375 C-17.30358898 12.73874547 -17.40819434 14.75726433 -16.625 18.125 C-14.83941682 21.12802626 -13.49798106 22.13830758 -10.25 23.4375 C-6.34917987 23.36906456 -4.0695836 23.01983572 -0.875 20.75 C1.16374374 17.84871083 1.67765204 15.98255011 1.75 12.4375 C0.14588152 8.90843933 -0.99159362 7.60977092 -4.25 5.4375 C-9.65801655 4.83660927 -12.56219359 5.31583401 -16.25 9.4375 Z " fill="#FFFFFF" transform="translate(73.25,51.5625)"/>
</svg>
