<?xml version="1.0" encoding="UTF-8"?>
<svg version="1.1" xmlns="http://www.w3.org/2000/svg" width="212" height="211">
<path d="M0 0 C16.90626885 14.64724155 30.16305576 34.22781102 34.71875 56.35546875 C34.86393066 57.04995117 35.00911133 57.74443359 35.15869141 58.45996094 C41.14814346 87.86038614 35.90443646 115.31146519 19.96875 140.54296875 C2.90249607 165.13845236 -21.7648754 179.26648196 -50.59155273 185.88598633 C-68.01363063 188.92698259 -87.64507335 186.94692731 -104.28125 181.35546875 C-105.26883301 181.02651611 -105.26883301 181.02651611 -106.27636719 180.69091797 C-132.09749532 171.69999307 -152.46040545 150.46789945 -164.28125 126.35546875 C-169.9455404 114.37654349 -173.53660408 101.62370513 -174.28125 88.35546875 C-174.33410156 87.453125 -174.38695312 86.55078125 -174.44140625 85.62109375 C-175.32723185 55.27193853 -163.73053601 29.27108494 -144.0703125 6.83203125 C-106.27140975 -33.21513337 -41.65472224 -33.92335334 0 0 Z M-140.296875 13.42578125 C-159.7714146 34.9987117 -167.59777758 61.75014306 -166.47216797 90.49755859 C-165.27416823 108.43078749 -158.13659053 126.14971448 -147.28125 140.35546875 C-146.87922363 140.88624023 -146.47719727 141.41701172 -146.06298828 141.96386719 C-133.00153501 158.98318536 -115.61412067 169.828741 -95.28125 176.35546875 C-93.68796875 176.86980469 -93.68796875 176.86980469 -92.0625 177.39453125 C-74.81870759 181.96157528 -55.15577213 180.81908791 -38.28125 175.35546875 C-37.14945313 174.99324219 -36.01765625 174.63101563 -34.8515625 174.2578125 C-17.15014847 167.99652096 -1.95560692 157.06515847 9.71875 142.35546875 C10.29882812 141.63488281 10.87890625 140.91429687 11.4765625 140.171875 C20.3442412 128.38144121 25.59993648 114.66324605 28.71875 100.35546875 C28.90050781 99.5459375 29.08226562 98.73640625 29.26953125 97.90234375 C33.57874492 73.47097584 27.86533106 48.22956975 14.71875 27.35546875 C12.23520746 23.8399299 9.55168718 20.59230985 6.71875 17.35546875 C5.85056641 16.25525391 5.85056641 16.25525391 4.96484375 15.1328125 C-9.49177183 -2.57107742 -33.73779504 -14.28033417 -56.28125 -16.64453125 C-88.0573678 -18.24047606 -117.80319732 -10.21797159 -140.296875 13.42578125 Z " fill="#FFFFFF" transform="translate(174.28125,24.64453125)"/>
<path d="M0 0 C6.24828463 4.11181348 8.59162565 10.2292555 11.8125 16.75 C12.40998047 17.905 13.00746094 19.06 13.62304688 20.25 C19.06156157 31.13946029 19.06156157 31.13946029 18 38 C16.38396544 41.56215277 13.68911017 43.66310169 10.1875 45.375 C9.465625 45.58125 8.74375 45.7875 8 46 C12.32303069 61.1306074 26.92328841 73.41119702 40.12890625 80.96875 C40.74636719 81.3090625 41.36382812 81.649375 42 82 C45.6015074 79.22169429 48.82865939 76.2594334 52 73 C53 72 53 72 56.15722656 71.75488281 C60.3693335 72.0235585 62.76271448 72.98018756 66.484375 74.921875 C67.35778534 75.3737619 67.35778534 75.3737619 68.24884033 75.83477783 C69.46913379 76.47022868 70.68581636 77.11265834 71.89892578 77.76171875 C73.7503908 78.75020865 75.61386824 79.71232951 77.48046875 80.671875 C88.79688415 86.60296702 88.79688415 86.60296702 91.0625 93 C91.68410398 98.87352333 88.05519306 104.24894383 85 109 C79.59767834 115.30065761 72.32337393 118.46323327 64.11328125 119.16015625 C43.47526069 120.01235459 24.12185659 106.55701872 9 94 C8.43539062 93.55914062 7.87078125 93.11828125 7.2890625 92.6640625 C2.95325905 89.24588941 -0.46891917 85.20847185 -4 81 C-4.71414062 80.1853125 -5.42828125 79.370625 -6.1640625 78.53125 C-14.99393166 68.21456438 -21.35464514 56.7700241 -26 44 C-26.24621094 43.34128906 -26.49242187 42.68257812 -26.74609375 42.00390625 C-29.24003108 34.00610723 -29.55809858 23.69014439 -26.3125 15.9375 C-20.88748468 5.89745428 -11.7766009 -1.01522422 0 0 Z M-18.5 15.6875 C-22.7905632 22.30211826 -21.76224077 31.83437844 -20.38671875 39.3515625 C-12.97662867 65.66227882 7.7214035 88.45104603 31 102 C42.73031 108.37138896 55.82321498 114.92558479 69.4921875 111.34765625 C75.90468695 108.83231556 79.5691898 104.78988939 83.22265625 99.09375 C84.2692705 96.2747287 83.93838051 94.84389792 83 92 C80.93955722 90.25133932 80.93955722 90.25133932 78.265625 88.95703125 C76.81542969 88.18262695 76.81542969 88.18262695 75.3359375 87.39257812 C73.80839844 86.61043945 73.80839844 86.61043945 72.25 85.8125 C71.24710937 85.27947266 70.24421875 84.74644531 69.2109375 84.19726562 C64.87079874 81.90919512 60.58308878 79.76221104 56 78 C55.278125 78.721875 54.55625 79.44375 53.8125 80.1875 C52.884375 81.115625 51.95625 82.04375 51 83 C50.236875 83.928125 49.47375 84.85625 48.6875 85.8125 C45.87835718 88.0990116 44.08798713 88.97986707 40.4296875 88.73828125 C34.57314904 86.95872214 29.73693801 82.76285104 25 79 C24.10667969 78.29230469 23.21335938 77.58460937 22.29296875 76.85546875 C14.10451946 69.90495825 6.27106245 60.94292352 2 51 C2 46.59217318 2.42060889 44.67334643 5.3125 41.3125 C6.199375 40.549375 7.08625 39.78625 8 39 C8.763125 38.236875 9.52625 37.47375 10.3125 36.6875 C10.869375 36.130625 11.42625 35.57375 12 35 C10.34730791 29.52378244 8.0045143 24.46874022 5.5625 19.3125 C5.16740234 18.45849609 4.77230469 17.60449219 4.36523438 16.72460938 C3.97787109 15.90412109 3.59050781 15.08363281 3.19140625 14.23828125 C2.84279541 13.49618408 2.49418457 12.75408691 2.13500977 11.98950195 C0.95726693 9.92509533 -0.17441348 8.51690393 -2 7 C-8.77067652 5.99816006 -14.14488559 11.00575201 -18.5 15.6875 Z " fill="#FFFFFF" transform="translate(75,47)"/>
</svg>
